<svg xmlns="http://www.w3.org/2000/svg" viewBox="0 0 200 200" role="img" aria-label="Falla Castielfabib">
  <defs>
    <linearGradient id="blue" x1="0" y1="0" x2="1" y2="1">
      <stop offset="0" stop-color="#1e4fa3" />
      <stop offset="1" stop-color="#173b7a" />
    </linearGradient>
    <linearGradient id="gold" x1="0" y1="0" x2="1" y2="1">
      <stop offset="0" stop-color="#f4d285" />
      <stop offset="1" stop-color="#d9a950" />
    </linearGradient>
  </defs>
  <rect width="200" height="200" rx="36" fill="url(#blue)" />
  <path d="M100 30c12 18 20 30 20 44 0 18-10 32-20 32s-20-14-20-32c0-14 8-26 20-44z" fill="#f4d285" />
  <rect x="70" y="80" width="60" height="80" rx="6" fill="#f7f2e6" />
  <rect x="85" y="100" width="30" height="60" rx="4" fill="url(#gold)" />
  <rect x="92" y="118" width="16" height="22" rx="2" fill="#1e4fa3" />
  <path d="M58 160h84c-8 10-24 16-42 16s-34-6-42-16z" fill="#f4d285" />
</svg>
